<?xml version="1.0" encoding="utf-8"?>
<!-- Generator: Adobe Illustrator 27.6.1, SVG Export Plug-In . SVG Version: 6.00 Build 0)  -->
<svg version="1.1" id="レイヤー_1" xmlns="http://www.w3.org/2000/svg" xmlns:xlink="http://www.w3.org/1999/xlink" x="0px"
	 y="0px" viewBox="0 0 42 42" style="enable-background:new 0 0 42 42;" xml:space="preserve">
<style type="text/css">
	.st0{fill:#FFF34D;stroke:#FFFFFF;stroke-width:0.5593;stroke-miterlimit:10;}
	.st1{fill:#F3AECC;stroke:#FFFFFF;stroke-width:0.5593;stroke-miterlimit:10;}
	.st2{fill:#ABDAD6;}
	.st3{fill:#FFFFFF;}
	.st4{fill:none;stroke:#FFFFFF;stroke-width:0.5593;stroke-miterlimit:10;}
	.st5{fill:#95C749;stroke:#FFFFFF;stroke-width:0.5593;stroke-miterlimit:10;}
	.st6{fill:#333333;}
	.st7{fill:#040000;}
	.st8{fill:#CCCCCC;}
</style>
<path class="st0" d="M26.7,15.78L8.51,24.5c-0.6,0.29-1.3-0.15-1.3-0.82V13.1c0-0.35,0.2-0.67,0.51-0.82l18.19-8.72
	c0.6-0.29,1.3,0.15,1.3,0.82v10.58C27.22,15.31,27.02,15.63,26.7,15.78z"/>
<path class="st1" d="M31.82,18.18L13.63,26.9c-0.6,0.29-1.3-0.15-1.3-0.82V15.5c0-0.35,0.2-0.67,0.51-0.82l18.19-8.72
	c0.6-0.29,1.3,0.15,1.3,0.82v10.58C32.33,17.71,32.13,18.03,31.82,18.18z"/>
<g>
	<polygon class="st2" points="19.94,19.35 17.44,20.55 17.44,17.38 19.94,16.18 	"/>
	<polygon class="st3" points="22.44,18.15 19.94,19.35 19.94,16.18 22.44,14.98 	"/>
	<polygon class="st2" points="24.95,16.95 22.44,18.15 22.44,14.98 24.95,13.78 	"/>
	<polygon class="st3" points="27.45,15.75 24.95,16.95 24.95,13.78 27.45,12.58 	"/>
	<polygon class="st2" points="29.95,14.55 27.45,15.75 27.45,12.58 29.95,11.37 	"/>
	<polygon class="st3" points="32.45,13.35 29.95,14.55 29.95,11.37 32.45,10.17 	"/>
	<polygon class="st2" points="34.96,12.15 32.45,13.35 32.45,10.17 34.96,8.97 	"/>
	<polygon class="st3" points="37.46,10.95 34.96,12.15 34.96,8.97 37.46,7.77 	"/>
	<polygon class="st3" points="19.94,22.53 17.44,23.73 17.44,20.55 19.94,19.35 	"/>
	<polygon class="st2" points="22.44,21.32 19.94,22.53 19.94,19.35 22.44,18.15 	"/>
	<polygon class="st3" points="24.95,20.12 22.44,21.32 22.44,18.15 24.95,16.95 	"/>
	<polygon class="st2" points="27.45,18.92 24.95,20.12 24.95,16.95 27.45,15.75 	"/>
	<polygon class="st3" points="29.95,17.72 27.45,18.92 27.45,15.75 29.95,14.55 	"/>
	<polygon class="st2" points="32.45,16.52 29.95,17.72 29.95,14.55 32.45,13.35 	"/>
	<polygon class="st3" points="34.96,15.32 32.45,16.52 32.45,13.35 34.96,12.15 	"/>
	<polygon class="st2" points="37.46,14.12 34.96,15.32 34.96,12.15 37.46,10.95 	"/>
</g>
<g>
	<polygon class="st2" points="19.94,25.7 17.44,26.9 17.44,23.73 19.94,22.53 	"/>
	<polygon class="st3" points="22.44,24.5 19.94,25.7 19.94,22.53 22.44,21.32 	"/>
	<polygon class="st2" points="24.95,23.3 22.44,24.5 22.44,21.32 24.95,20.12 	"/>
	<polygon class="st3" points="27.45,22.1 24.95,23.3 24.95,20.12 27.45,18.92 	"/>
	<polygon class="st2" points="29.95,20.9 27.45,22.1 27.45,18.92 29.95,17.72 	"/>
	<polygon class="st3" points="32.45,19.7 29.95,20.9 29.95,17.72 32.45,16.52 	"/>
	<polygon class="st2" points="34.96,18.5 32.45,19.7 32.45,16.52 34.96,15.32 	"/>
	<polygon class="st3" points="37.46,17.3 34.96,18.5 34.96,15.32 37.46,14.12 	"/>
	<polygon class="st3" points="19.94,28.87 17.44,30.07 17.44,26.9 19.94,25.7 	"/>
	<polygon class="st2" points="22.44,27.67 19.94,28.87 19.94,25.7 22.44,24.5 	"/>
	<polygon class="st3" points="24.95,26.47 22.44,27.67 22.44,24.5 24.95,23.3 	"/>
	<polygon class="st2" points="27.45,25.27 24.95,26.47 24.95,23.3 27.45,22.1 	"/>
	<polygon class="st3" points="29.95,24.07 27.45,25.27 27.45,22.1 29.95,20.9 	"/>
	<polygon class="st2" points="32.45,22.87 29.95,24.07 29.95,20.9 32.45,19.7 	"/>
	<polygon class="st3" points="34.96,21.67 32.45,22.87 32.45,19.7 34.96,18.5 	"/>
	<polygon class="st2" points="37.46,20.47 34.96,21.67 34.96,18.5 37.46,17.3 	"/>
</g>
<path class="st4" d="M36.93,20.72l-18.19,8.72c-0.6,0.29-1.3-0.15-1.3-0.82V17.91c0-0.35,0.2-0.67,0.51-0.82l18.19-8.72
	c0.6-0.29,1.3,0.15,1.3,0.82v10.72C37.45,20.25,37.25,20.57,36.93,20.72z"/>
<path class="st5" d="M0.73,27.39l19.24,9.23c0.6,0.29,1.3-0.15,1.3-0.82V23.29c0-0.35-0.2-0.67-0.51-0.82L1.51,13.24
	c-0.6-0.29-1.3,0.15-1.3,0.82v12.51C0.22,26.92,0.42,27.24,0.73,27.39z"/>
<g>
	<path class="st6" d="M35.94,32.79c0,1.61,1.31,2.92,2.92,2.92c1.61,0,2.92-1.31,2.92-2.92s-1.31-2.92-2.92-2.92
		C37.25,29.87,35.94,31.18,35.94,32.79z M36.96,32.79c0-1.05,0.85-1.9,1.9-1.9s1.9,0.85,1.9,1.9c0,1.05-0.85,1.9-1.9,1.9
		S36.96,33.84,36.96,32.79z"/>
	<path class="st7" d="M36.85,32.79c0,1.11,0.9,2.01,2.01,2.01c1.11,0,2.01-0.9,2.01-2.01s-0.9-2.01-2.01-2.01
		C37.75,30.77,36.85,31.68,36.85,32.79z M39.14,31.28c-0.02,0.03-0.31,0.79-0.33,0.83c-0.02,0.04-0.05,0.07-0.08,0.08
		c-0.02,0.01-0.06,0.02-0.06,0.02s-0.04,0.01-0.06,0.02c-0.02,0.01-0.07,0-0.11-0.02c-0.04-0.02-0.73-0.46-0.76-0.47
		c-0.03-0.02-0.09-0.09-0.06-0.16c0.18-0.17,0.4-0.31,0.65-0.39s0.51-0.1,0.76-0.07C39.16,31.16,39.16,31.25,39.14,31.28z
		 M39.32,33.2c0.02-0.02,0.04-0.05,0.04-0.05s0.02-0.03,0.04-0.05c0.02-0.02,0.06-0.04,0.1-0.05c0.04-0.01,0.86-0.06,0.89-0.06
		c0.03-0.01,0.12,0.02,0.15,0.09c-0.04,0.25-0.14,0.49-0.3,0.7c-0.16,0.22-0.36,0.38-0.58,0.5c-0.08,0-0.13-0.08-0.14-0.11
		c-0.01-0.03-0.21-0.82-0.22-0.87C39.29,33.26,39.3,33.22,39.32,33.2z M39.3,32.27c0.01-0.04,0.21-0.83,0.22-0.87
		c0.01-0.03,0.06-0.11,0.14-0.11c0.22,0.12,0.42,0.28,0.58,0.5c0.16,0.22,0.25,0.46,0.3,0.7c-0.02,0.07-0.11,0.1-0.15,0.09
		c-0.03-0.01-0.85-0.06-0.89-0.06c-0.04-0.01-0.08-0.03-0.1-0.05c-0.02-0.02-0.04-0.05-0.04-0.05s-0.02-0.03-0.04-0.05
		C39.3,32.36,39.29,32.31,39.3,32.27z M37.75,33.84c0.03-0.02,0.72-0.45,0.76-0.47c0.04-0.02,0.08-0.03,0.11-0.02
		c0.02,0.01,0.06,0.02,0.06,0.02s0.04,0.01,0.06,0.02c0.02,0.01,0.06,0.04,0.08,0.08c0.02,0.04,0.32,0.8,0.33,0.83
		c0.02,0.03,0.02,0.12-0.04,0.17c-0.25,0.04-0.51,0.02-0.76-0.07c-0.25-0.08-0.47-0.22-0.65-0.39
		C37.66,33.93,37.72,33.86,37.75,33.84z M37.34,33.53c-0.11-0.22-0.17-0.48-0.17-0.74c0-0.27,0.06-0.52,0.17-0.74
		c0.06-0.05,0.15-0.01,0.17,0.01c0.02,0.02,0.65,0.54,0.68,0.57c0.03,0.03,0.05,0.07,0.05,0.1c0,0.03,0,0.06,0,0.06s0,0.04,0,0.06
		c0,0.03-0.02,0.07-0.05,0.1s-0.66,0.55-0.68,0.57C37.49,33.55,37.4,33.58,37.34,33.53z"/>
	<path class="st6" d="M26.66,29.87c-1.61,0-2.92,1.31-2.92,2.92s1.31,2.92,2.92,2.92c1.61,0,2.92-1.31,2.92-2.92
		S28.27,29.87,26.66,29.87z M26.66,34.68c-1.05,0-1.9-0.85-1.9-1.9c0-1.05,0.85-1.9,1.9-1.9c1.05,0,1.9,0.85,1.9,1.9
		C28.56,33.84,27.71,34.68,26.66,34.68z"/>
	<path class="st7" d="M26.66,30.77c-1.11,0-2.01,0.9-2.01,2.01s0.9,2.01,2.01,2.01c1.11,0,2.01-0.9,2.01-2.01
		S27.77,30.77,26.66,30.77z M26.42,31.11c0.25-0.04,0.51-0.02,0.76,0.07s0.47,0.22,0.65,0.39c0.02,0.07-0.03,0.15-0.06,0.16
		c-0.03,0.02-0.72,0.45-0.76,0.47c-0.04,0.02-0.08,0.03-0.11,0.02s-0.06-0.02-0.06-0.02s-0.04-0.01-0.06-0.02
		c-0.02-0.01-0.06-0.04-0.08-0.08s-0.32-0.8-0.33-0.83C26.36,31.25,26.36,31.16,26.42,31.11z M26.22,33.31
		c-0.01,0.04-0.21,0.83-0.22,0.87c-0.01,0.03-0.06,0.11-0.14,0.11c-0.22-0.12-0.42-0.28-0.58-0.5c-0.16-0.22-0.25-0.46-0.3-0.7
		c0.02-0.07,0.11-0.1,0.15-0.09c0.03,0.01,0.85,0.06,0.89,0.06c0.04,0.01,0.08,0.03,0.1,0.05c0.02,0.02,0.04,0.05,0.04,0.05
		s0.02,0.03,0.04,0.05C26.22,33.22,26.23,33.26,26.22,33.31z M26.2,32.38c-0.02,0.02-0.04,0.05-0.04,0.05s-0.02,0.03-0.04,0.05
		c-0.02,0.02-0.06,0.04-0.1,0.05c-0.04,0.01-0.86,0.06-0.89,0.06c-0.03,0.01-0.12-0.02-0.15-0.09c0.04-0.25,0.14-0.49,0.3-0.7
		c0.16-0.22,0.36-0.38,0.58-0.5c0.08,0,0.13,0.08,0.14,0.11c0.01,0.03,0.21,0.82,0.22,0.87C26.23,32.31,26.22,32.36,26.2,32.38z
		 M27.84,34c-0.18,0.17-0.4,0.31-0.65,0.39c-0.25,0.08-0.51,0.1-0.76,0.07c-0.06-0.04-0.06-0.14-0.04-0.17
		c0.02-0.03,0.31-0.79,0.33-0.83c0.02-0.04,0.05-0.07,0.08-0.08c0.02-0.01,0.06-0.02,0.06-0.02s0.04-0.01,0.06-0.02
		c0.02-0.01,0.07,0,0.11,0.02c0.04,0.02,0.73,0.46,0.76,0.47C27.8,33.86,27.86,33.93,27.84,34z M28.01,33.52
		c-0.02-0.02-0.65-0.54-0.68-0.57s-0.05-0.07-0.05-0.1c0-0.03,0-0.06,0-0.06s0-0.04,0-0.06c0-0.03,0.02-0.07,0.05-0.1
		c0.03-0.03,0.66-0.55,0.68-0.57c0.02-0.02,0.11-0.06,0.17-0.01c0.11,0.22,0.17,0.48,0.17,0.74c0,0.27-0.06,0.52-0.17,0.74
		C28.12,33.58,28.03,33.55,28.01,33.52z"/>
	<path class="st2" d="M26.2,32.81c-0.02-0.35,0.1-0.46,0.1-0.46l0.82-0.04c0,0,0.14,0.06,0.32,0.1c0.19,0.04,0.71,0.03,0.71,0.03
		l2.32-0.11c0.18-0.18,0.34-0.34,0.34-0.34s0.03-0.02,0.04-0.07l-0.38-0.91l0.5-0.21l0.28,0.66c0.02,0,0.03,0,0.07-0.01
		c0.05-0.01,0.1-0.06,0.1-0.06l4.45-4.54c0,0,0.04-0.04,0.06-0.08c0.01-0.01,0.02-0.03,0.02-0.05l-0.08-0.2l0.6-0.25l0.76,1.8
		l-0.6,0.25l-0.1-0.25l-0.04-0.03l-0.08,0.04l-0.06,0.04l-4.53,4.62l0.16,0.39c0.01,0.02,0,0.04-0.02,0.05l-0.43,0.18
		c-0.02,0.01-0.04,0-0.05-0.02l-0.08-0.18l-0.43,0.44l-0.9,0.05c0,0-0.07,0-0.14-0.09c-0.07-0.09-0.07-0.15-0.06-0.26
		c0-0.11,0.02-0.25,0.11-0.41l-1.79,0.08h0c0,0-0.54,0.06-0.7,0.1c-0.17,0.04-0.31,0.13-0.31,0.13l0,0l-0.82,0.04
		C26.35,33.25,26.22,33.16,26.2,32.81z"/>
	<path class="st7" d="M38.21,32.12c-0.03-0.19-0.22-0.68-0.22-0.68l-1.24-2.93l-0.15,0.06l-0.04-0.09l0.1-0.04l-0.04-0.09l0.6-0.25
		l0.04,0.09l0.1-0.04l0.04,0.09l-0.15,0.06l1.24,2.94v0c0,0,0.24,0.49,0.34,0.63c0.1,0.14,0.23,0.25,0.23,0.25v0l0.32,0.76
		c0,0-0.05,0.15-0.37,0.29c-0.32,0.14-0.47,0.07-0.47,0.07l-0.32-0.76C38.23,32.46,38.24,32.31,38.21,32.12z"/>
	<path class="st8" d="M38.78,32.94c0.03,0.07,0.1,0.1,0.17,0.07s0.1-0.1,0.07-0.17c-0.03-0.07-0.1-0.1-0.17-0.07
		C38.79,32.8,38.76,32.88,38.78,32.94z"/>
	<circle class="st8" cx="26.52" cy="32.79" r="0.13"/>
	<polygon class="st7" points="35.45,26.26 35.83,26.1 35.4,25.08 35.81,24.91 36.24,25.92 36.32,25.89 36.43,26.15 36.41,26.16 
		36.47,26.29 35.87,26.54 35.81,26.41 35.56,26.52 	"/>
	<polygon class="st7" points="30.46,30.76 29.89,29.44 30.3,29.26 30.86,30.59 30.97,30.55 31.1,30.85 30.18,31.24 30.05,30.94 	"/>
	<path class="st6" d="M31.72,28.66c0,0-0.02,0.05-0.11,0.09c-0.09,0.04-1.4,0.63-1.61,0.72c-0.2,0.09-0.36,0.13-0.52,0.14
		c-0.16,0.01-0.62-0.05-0.79-0.1c-0.17-0.04-0.55-0.21-0.62-0.29c-0.07-0.08-0.09-0.11-0.11-0.15c-0.02-0.04-0.06-0.34-0.05-0.42
		c0-0.08,0.06-0.18,0.17-0.2c0.12-0.02,0.56,0.18,1.34,0.15c0.79-0.03,1.73-0.29,1.84-0.3c0.12-0.01,0.26,0.02,0.3,0.09
		C31.63,28.46,31.72,28.66,31.72,28.66z"/>
	<circle class="st6" cx="35.35" cy="24.86" r="0.53"/>
</g>
</svg>
