<?xml version="1.0" encoding="utf-8"?>
<!-- Generator: Adobe Illustrator 27.6.1, SVG Export Plug-In . SVG Version: 6.00 Build 0)  -->
<svg version="1.1" xmlns="http://www.w3.org/2000/svg" xmlns:xlink="http://www.w3.org/1999/xlink" x="0px" y="0px"
	 viewBox="0 0 174 189" style="enable-background:new 0 0 174 189;" xml:space="preserve">
<style type="text/css">
	.st0{display:none;}
	.st1{display:inline;fill:#FFF24D;stroke:#FFFFFF;stroke-width:2.2371;stroke-miterlimit:10;}
	.st2{display:inline;fill:#F2ACCB;stroke:#FFFFFF;stroke-width:2.2371;stroke-miterlimit:10;}
	.st3{display:inline;}
	.st4{fill:#231815;}
	.st5{fill:#AAD9D5;}
	.st6{fill:#FFFFFF;}
	.st7{display:inline;fill:none;stroke:#FFFFFF;stroke-width:2.2371;stroke-miterlimit:10;}
	.st8{display:inline;fill:#94C649;stroke:#FFFFFF;stroke-width:2.2371;stroke-miterlimit:10;}
	.st9{fill:#323333;}
	.st10{fill:#040000;}
	.st11{fill:#CBCBCB;}
	.st12{fill:#FFF24D;stroke:#FFFFFF;stroke-width:2.2371;stroke-miterlimit:10;}
	.st13{fill:#F2ACCB;stroke:#FFFFFF;stroke-width:2.2371;stroke-miterlimit:10;}
	.st14{fill:none;stroke:#FFFFFF;stroke-width:2.2371;stroke-miterlimit:10;}
	.st15{fill:#94C649;stroke:#FFFFFF;stroke-width:2.2371;stroke-miterlimit:10;}
</style>
<g id="レイヤー_1" class="st0">
	<path class="st1" d="M107,49.8L34.2,84.6C31.8,85.8,29,84,29,81.4V39c0-1.4,0.8-2.7,2.1-3.3l72.8-34.9c2.4-1.2,5.2,0.6,5.2,3.3
		v42.3C109,47.9,108.2,49.1,107,49.8z"/>
	<path class="st2" d="M127.4,59.4L54.7,94.3c-2.4,1.2-5.2-0.6-5.2-3.3V48.7c0-1.4,0.8-2.7,2.1-3.3l72.8-34.9
		c2.4-1.2,5.2,0.6,5.2,3.3v42.3C129.5,57.5,128.7,58.8,127.4,59.4z"/>
	<g class="st3">
		<path class="st4" d="M8.9,146.6c-1.2,0-3.3,0-3.9,0c-0.1,0-0.2,0.1-0.2,0.2c0,1.3,0,9.6,0,12.2c0,0.4-0.4,0.8-0.8,0.8
			c-0.4,0-0.8-0.4-0.8-0.8c0-2.6,0-10.9,0-12.2c0-0.1-0.1-0.2-0.2-0.2c-0.7,0-2.9,0-4.1,0c-0.4,0-0.8-0.4-0.8-0.8S-1.5,145-1,145
			h9.9c0.4,0,0.8,0.4,0.8,0.8S9.3,146.6,8.9,146.6z"/>
		<path class="st4" d="M24.8,145.6l5.3,13.3c0.2,0.5,0,1-0.5,1.1c-0.6,0.1-1-0.1-1.2-0.6c-0.4-0.9-1.1-2.9-1.3-3.4
			c0-0.1-0.1-0.1-0.2-0.1c-0.6,0-2.7,0-3.8,0c-0.4,0-0.8-0.4-0.8-0.8s0.4-0.8,0.8-0.8c1,0,2.6,0,3.2,0c0.1,0,0.1-0.1,0.1-0.1
			c-0.4-1-2.1-5.3-2.6-6.6c0-0.1-0.1-0.1-0.1,0c-0.6,1.4-3.4,9.2-4.4,11.6c-0.2,0.5-0.6,0.8-1.2,0.7c-0.4-0.1-0.7-0.6-0.6-1
			l5.3-13.2c0.2-0.4,0.6-0.7,1-0.7S24.6,145.2,24.8,145.6z"/>
		<path class="st4" d="M39.9,158.9c0,0.4-0.4,0.8-0.8,0.8c-0.4,0-0.8-0.4-0.8-0.8v-13.2c0-0.4,0.4-0.8,0.8-0.8
			c0.5,0,0.8,0.4,0.8,0.8V158.9z M48.4,159.7c-0.6,0.2-0.9,0-1.3-0.5l-5.9-6.7c-0.4-0.4-0.4-1.1,0-1.5l5.3-5.4
			c0.3-0.3,0.7-0.4,1.2-0.2c0.4,0.3,0.5,0.8,0.2,1.1c-1.5,1.6-4.5,4.5-5.2,5.2c-0.1,0.1-0.1,0.2,0,0.2c0.8,0.8,4.4,4.8,6,6.6
			C49.1,158.9,48.7,159.5,48.4,159.7z"/>
		<path class="st4" d="M63.8,145.6l5.3,13.3c0.2,0.5,0,1-0.5,1.1c-0.6,0.1-1-0.1-1.2-0.6c-0.4-0.9-1.1-2.9-1.3-3.4
			c0-0.1-0.1-0.1-0.2-0.1c-0.6,0-2.7,0-3.8,0c-0.4,0-0.8-0.4-0.8-0.8s0.4-0.8,0.8-0.8c1,0,2.6,0,3.2,0c0.1,0,0.1-0.1,0.1-0.1
			c-0.4-1-2.1-5.3-2.6-6.6c0-0.1-0.1-0.1-0.1,0c-0.6,1.4-3.4,9.2-4.4,11.6c-0.2,0.5-0.6,0.8-1.2,0.7c-0.4-0.1-0.7-0.6-0.6-1
			l5.3-13.2c0.2-0.4,0.6-0.7,1-0.7S63.7,145.2,63.8,145.6z"/>
		<path class="st4" d="M87.5,155.5c0,1.8-1.3,4.4-5.5,4.3c-3.1,0-4.6-1.4-5.1-3.3c-0.1-0.4,0.4-0.9,0.8-0.9c0.5,0,0.7,0.4,0.9,0.8
			c0.5,1.2,1.5,1.9,3.4,2c3,0.1,3.9-1.7,3.9-3c0-0.9-0.3-2.3-3-2.6c-3.8-0.5-5.9-1.4-6-4.2c0-2.3,1.8-3.7,5.1-3.8
			c1.7,0,3.4,0.5,4.7,1.3c0.4,0.2,0.6,0.7,0.5,1.2c-0.1,0.4-0.6,0.7-1,0.5c-1.3-0.8-2.4-1.3-4-1.3c-2.1-0.1-3.6,0.6-3.6,2
			c0,1.5,1.1,2.3,4.5,2.8C86,151.7,87.6,153.2,87.5,155.5z"/>
		<path class="st4" d="M97,158.9c0,0.4-0.4,0.8-0.8,0.8c-0.4,0-0.8-0.4-0.8-0.8v-13.2c0-0.4,0.4-0.8,0.8-0.8c0.4,0,0.8,0.4,0.8,0.8
			V158.9z M105.9,145.7V159c0,0.4-0.3,0.8-0.8,0.8c-0.4,0-0.8-0.4-0.8-0.8c0-1.6,0-5.2,0-6.1c0-0.1-0.1-0.1-0.2-0.1
			c-0.8,0-3.9,0-5.4,0c-0.4,0-0.8-0.4-0.8-0.8c0-0.4,0.4-0.8,0.8-0.8c1.5,0,4.6,0,5.4,0c0.1,0,0.2-0.1,0.2-0.1c0-0.8,0-3.9,0-5.3
			c0-0.4,0.4-0.8,0.8-0.8C105.6,145,105.9,145.3,105.9,145.7z"/>
		<path class="st4" d="M116.5,158.9c0,0.4-0.4,0.8-0.8,0.8s-0.8-0.4-0.8-0.8v-13.2c0-0.4,0.4-0.8,0.8-0.8s0.8,0.4,0.8,0.8V158.9z"/>
		<path class="st4" d="M125.7,145.6c0-0.4,0.4-0.8,0.8-0.8c0.4,0,0.8,0.4,0.8,0.8v13.3c0,0.5-0.4,0.8-0.8,0.8
			c-0.4,0-0.8-0.4-0.8-0.8V145.6z M138.7,145c0.6,0,0.9,0.5,0.9,1V159c0,0.4-0.4,0.8-0.8,0.8c-0.4,0-0.8-0.4-0.8-0.8
			c0-2.4,0-10,0-11.8c0-0.1-0.1-0.1-0.1,0c-0.8,1.3-3.3,5.2-4.2,6.8c-0.2,0.4-0.6,0.6-1.1,0.6c-0.4,0-0.8-0.3-1-0.7l-3.8-7.9
			c-0.2-0.4,0.1-0.8,0.5-0.8c0.5,0,0.8,0.1,1,0.5c0.8,1.7,2.9,5.9,3.3,6.9c0,0.1,0.1,0.1,0.2,0c0.6-0.9,3.2-5.1,4.3-6.9
			c0.2-0.3,0.4-0.5,0.9-0.5H138.7z"/>
		<path class="st4" d="M154.8,145.6l5.3,13.3c0.2,0.5,0,1-0.5,1.1c-0.6,0.1-1-0.1-1.2-0.6c-0.4-0.9-1.1-2.9-1.3-3.4
			c0-0.1-0.1-0.1-0.2-0.1c-0.6,0-2.7,0-3.8,0c-0.4,0-0.8-0.4-0.8-0.8s0.4-0.8,0.8-0.8c1,0,2.6,0,3.2,0c0.1,0,0.1-0.1,0.1-0.1
			c-0.4-1-2.1-5.3-2.6-6.6c0-0.1-0.1-0.1-0.1,0c-0.6,1.4-3.4,9.2-4.4,11.6c-0.2,0.5-0.6,0.8-1.2,0.7c-0.4-0.1-0.7-0.6-0.6-1
			l5.3-13.2c0.2-0.4,0.6-0.7,1-0.7C154.3,144.9,154.7,145.2,154.8,145.6z"/>
		<path class="st4" d="M8.2,186.1c-0.6,0-1-0.5-1-1v-12.9c0-0.4,0.3-0.8,0.8-0.8c0.4,0,0.8,0.4,0.8,0.8c0,2.6,0,10.9,0,12.2
			c0,0.1,0.1,0.2,0.2,0.2c1.1,0,2.1,0,2.8,0c3.5-0.2,4.7-2,4.8-5.8c0.1-2.8-0.8-5.7-4.6-5.8h-1.6c-0.4,0-0.8-0.4-0.8-0.8
			c0-0.4,0.3-0.8,0.8-0.8h1.6c4.4,0,6.3,3.2,6.2,7.3c0,3.9-1.6,7.3-6.3,7.3C11.1,186.1,9.4,186.1,8.2,186.1z"/>
		<path class="st4" d="M33,172.1l5.3,13.3c0.2,0.5,0,1-0.5,1.1c-0.6,0.1-1-0.1-1.2-0.6c-0.4-0.9-1.1-2.9-1.3-3.4
			c0-0.1-0.1-0.1-0.2-0.1c-0.6,0-2.7,0-3.8,0c-0.4,0-0.8-0.4-0.8-0.8s0.4-0.8,0.8-0.8c1,0,2.6,0,3.2,0c0.1,0,0.1-0.1,0.1-0.1
			c-0.4-1-2.1-5.3-2.6-6.6c0-0.1-0.1-0.1-0.1,0c-0.6,1.4-3.4,9.2-4.4,11.6c-0.2,0.5-0.6,0.8-1.2,0.7c-0.4-0.1-0.7-0.6-0.6-1
			l5.3-13.2c0.2-0.4,0.6-0.7,1-0.7S32.9,171.7,33,172.1z"/>
		<path class="st4" d="M48.8,185.4c0,0.4-0.4,0.8-0.8,0.8s-0.8-0.4-0.8-0.8v-13.2c0-0.4,0.4-0.8,0.8-0.8s0.8,0.4,0.8,0.8V185.4z"/>
		<path class="st4" d="M66.9,185.5c-0.8-1.4-2.4-4.2-2.7-4.9c0-0.1-0.1-0.1-0.2-0.1c-0.5,0-1.9,0-2.9,0c-0.4,0-0.8-0.3-0.8-0.8
			s0.3-0.8,0.8-0.8h2.2c3,0.1,3.4-2.5,3.4-3c0-1.4-0.5-3-2.8-3c0,0-3.1,0-4,0c-0.1,0-0.2,0.1-0.2,0.2c0,1.3,0,9.7,0,12.3
			c0,0.4-0.4,0.8-0.8,0.8s-0.8-0.4-0.8-0.8v-13c0-0.6,0.5-1,1-1h4.7c2.8,0.1,4.4,1.6,4.4,4.4c0,2.1-1.3,3.8-2.5,4.2
			c-0.1,0-0.1,0.1-0.1,0.2c0.4,0.7,2.1,3.6,3,5c0.2,0.4,0.1,0.9-0.6,0.9C67.6,186.2,67.2,186,66.9,185.5z"/>
		<path class="st4" d="M83.8,172.1l5.3,13.3c0.2,0.5,0,1-0.5,1.1c-0.6,0.1-1-0.1-1.2-0.6c-0.4-0.9-1.1-2.9-1.3-3.4
			c0-0.1-0.1-0.1-0.2-0.1c-0.6,0-2.7,0-3.8,0c-0.4,0-0.8-0.4-0.8-0.8s0.4-0.8,0.8-0.8c1,0,2.6,0,3.2,0c0.1,0,0.1-0.1,0.1-0.1
			c-0.4-1-2.1-5.3-2.6-6.6c0-0.1-0.1-0.1-0.1,0c-0.6,1.4-3.4,9.2-4.4,11.6c-0.2,0.5-0.6,0.8-1.2,0.7c-0.4-0.1-0.7-0.6-0.6-1
			l5.3-13.2c0.2-0.4,0.6-0.7,1-0.7S83.7,171.7,83.8,172.1z"/>
		<path class="st4" d="M103.2,178.6c0-4.3,2.4-7.2,6.1-7.3c3.1-0.1,4.8,1.8,5.1,2.9c0.1,0.4-0.3,0.9-0.7,1c-0.5,0-0.8-0.3-1.1-0.7
			c-0.8-1.1-1.9-1.5-3.2-1.5c-2.8,0-4.6,2.3-4.6,5.8c0,3.1,1.4,6.2,4.9,6.1c1.6-0.1,3.2-1.1,3.5-2.7c0.1-0.5,0.3-0.9,0.8-0.8
			c0.5,0,1,0.5,0.9,1.1c-0.4,1.8-1.4,3.9-5.1,4C105.3,186.5,103.2,183.2,103.2,178.6z"/>
		<path class="st4" d="M128,186.2c-3.3-0.1-5.3-2.3-5.2-6.1v-7.9c0-0.4,0.4-0.8,0.8-0.8c0.4,0,0.8,0.3,0.8,0.8v7.9
			c0,2.2,1,4.5,3.7,4.5c2.3,0.1,3.6-1.5,3.8-4.3v-8.2c0-0.4,0.4-0.8,0.8-0.8c0.4,0,0.8,0.3,0.8,0.8v8.3
			C133.3,184.7,130.4,186.3,128,186.2z"/>
		<path class="st4" d="M146.9,180.6h-2.3c-0.5,0-0.8-0.4-0.8-0.8c0-0.4,0.4-0.8,0.8-0.8h2.3c2.1,0,3.3-1.2,3.4-2.9
			c0-1.4-0.8-3-2.9-3c0,0-3.1,0-4,0c-0.1,0-0.1,0.1-0.1,0.2c0,1.3,0,9.9,0,12.5c0,0.4-0.4,0.8-0.8,0.8c-0.4,0-0.8-0.3-0.8-0.8v-13.1
			c0-0.6,0.5-1,1-1h4.4c3.5,0,4.8,2.4,4.8,4.3C151.9,179.1,149.6,180.6,146.9,180.6z"/>
	</g>
	<g class="st3">
		<polygon class="st5" points="79.9,64 69.9,68.8 69.9,56.1 79.9,51.3 		"/>
		<polygon class="st6" points="89.9,59.2 79.9,64 79.9,51.3 89.9,46.5 		"/>
		<polygon class="st5" points="99.9,54.4 89.9,59.2 89.9,46.5 99.9,41.7 		"/>
		<polygon class="st6" points="109.9,49.6 99.9,54.4 99.9,41.7 109.9,36.9 		"/>
		<polygon class="st5" points="119.9,44.8 109.9,49.6 109.9,36.9 119.9,32.1 		"/>
		<polygon class="st6" points="130,40 119.9,44.8 119.9,32.1 130,27.3 		"/>
		<polygon class="st5" points="140,35.2 130,40 130,27.3 140,22.5 		"/>
		<polygon class="st6" points="150,30.4 140,35.2 140,22.5 150,17.7 		"/>
		<polygon class="st6" points="79.9,76.7 69.9,81.5 69.9,68.8 79.9,64 		"/>
		<polygon class="st5" points="89.9,71.9 79.9,76.7 79.9,64 89.9,59.2 		"/>
		<polygon class="st6" points="99.9,67.1 89.9,71.9 89.9,59.2 99.9,54.4 		"/>
		<polygon class="st5" points="109.9,62.3 99.9,67.1 99.9,54.4 109.9,49.6 		"/>
		<polygon class="st6" points="119.9,57.5 109.9,62.3 109.9,49.6 119.9,44.8 		"/>
		<polygon class="st5" points="130,52.7 119.9,57.5 119.9,44.8 130,40 		"/>
		<polygon class="st6" points="140,47.9 130,52.7 130,40 140,35.2 		"/>
		<polygon class="st5" points="150,43.1 140,47.9 140,35.2 150,30.4 		"/>
	</g>
	<g class="st3">
		<polygon class="st5" points="79.9,89.4 69.9,94.2 69.9,81.5 79.9,76.7 		"/>
		<polygon class="st6" points="89.9,84.6 79.9,89.4 79.9,76.7 89.9,71.9 		"/>
		<polygon class="st5" points="99.9,79.8 89.9,84.6 89.9,71.9 99.9,67.1 		"/>
		<polygon class="st6" points="109.9,75 99.9,79.8 99.9,67.1 109.9,62.3 		"/>
		<polygon class="st5" points="119.9,70.2 109.9,75 109.9,62.3 119.9,57.5 		"/>
		<polygon class="st6" points="130,65.4 119.9,70.2 119.9,57.5 130,52.7 		"/>
		<polygon class="st5" points="140,60.6 130,65.4 130,52.7 140,47.9 		"/>
		<polygon class="st6" points="150,55.8 140,60.6 140,47.9 150,43.1 		"/>
		<polygon class="st6" points="79.9,102.1 69.9,106.9 69.9,94.2 79.9,89.4 		"/>
		<polygon class="st5" points="89.9,97.3 79.9,102.1 79.9,89.4 89.9,84.6 		"/>
		<polygon class="st6" points="99.9,92.5 89.9,97.3 89.9,84.6 99.9,79.8 		"/>
		<polygon class="st5" points="109.9,87.7 99.9,92.5 99.9,79.8 109.9,75 		"/>
		<polygon class="st6" points="119.9,82.9 109.9,87.7 109.9,75 119.9,70.2 		"/>
		<polygon class="st5" points="130,78.1 119.9,82.9 119.9,70.2 130,65.4 		"/>
		<polygon class="st6" points="140,73.3 130,78.1 130,65.4 140,60.6 		"/>
		<polygon class="st5" points="150,68.5 140,73.3 140,60.6 150,55.8 		"/>
	</g>
	<path class="st7" d="M147.9,69.5l-72.8,34.9c-2.4,1.2-5.2-0.6-5.2-3.3V58.3c0-1.4,0.8-2.7,2.1-3.3l72.8-34.9
		c2.4-1.2,5.2,0.6,5.2,3.3v42.9C149.9,67.7,149.1,68.9,147.9,69.5z"/>
	<path class="st8" d="M3.1,96.2l77,36.9c2.4,1.2,5.2-0.6,5.2-3.3V79.8c0-1.4-0.8-2.7-2.1-3.3l-77-36.9C3.8,38.5,1,40.2,1,42.9v50.1
		C1,94.3,1.8,95.6,3.1,96.2z"/>
	<g class="st3">
		<path class="st9" d="M149.6,117.8c0,6.4,5.2,11.7,11.7,11.7c6.4,0,11.7-5.2,11.7-11.7c0-6.4-5.2-11.7-11.7-11.7
			C154.8,106.1,149.6,111.3,149.6,117.8z M153.7,117.8c0-4.2,3.4-7.6,7.6-7.6s7.6,3.4,7.6,7.6c0,4.2-3.4,7.6-7.6,7.6
			S153.7,122,153.7,117.8z"/>
		<path class="st10" d="M153.2,117.8c0,4.4,3.6,8.1,8.1,8.1c4.4,0,8.1-3.6,8.1-8.1s-3.6-8.1-8.1-8.1
			C156.8,109.7,153.2,113.3,153.2,117.8z M162.4,111.8c-0.1,0.1-1.3,3.2-1.3,3.3c-0.1,0.2-0.2,0.3-0.3,0.3c-0.1,0-0.2,0.1-0.2,0.1
			s-0.1,0-0.2,0.1c-0.1,0-0.3,0-0.4-0.1c-0.2-0.1-2.9-1.8-3-1.9c-0.1-0.1-0.4-0.4-0.3-0.7c0.7-0.7,1.6-1.2,2.6-1.6
			c1-0.3,2.1-0.4,3-0.3C162.4,111.3,162.4,111.6,162.4,111.8z M163.1,119.4c0.1-0.1,0.1-0.2,0.1-0.2s0.1-0.1,0.1-0.2
			c0.1-0.1,0.2-0.2,0.4-0.2c0.2,0,3.4-0.2,3.6-0.2c0.1,0,0.5,0.1,0.6,0.4c-0.2,1-0.6,1.9-1.2,2.8c-0.6,0.9-1.4,1.5-2.3,2
			c-0.3,0-0.5-0.3-0.5-0.4c0-0.1-0.8-3.3-0.9-3.5C163,119.7,163,119.5,163.1,119.4z M163,115.7c0-0.2,0.8-3.3,0.9-3.5
			c0-0.1,0.2-0.4,0.5-0.4c0.9,0.5,1.7,1.1,2.3,2c0.6,0.9,1,1.8,1.2,2.8c-0.1,0.3-0.5,0.4-0.6,0.4c-0.1,0-3.4-0.2-3.6-0.2
			c-0.2,0-0.3-0.1-0.4-0.2c-0.1-0.1-0.1-0.2-0.1-0.2s-0.1-0.1-0.1-0.2C163,116.1,163,115.9,163,115.7z M156.8,122
			c0.1-0.1,2.9-1.8,3-1.9c0.2-0.1,0.3-0.1,0.4-0.1c0.1,0,0.2,0.1,0.2,0.1s0.1,0,0.2,0.1c0.1,0,0.2,0.2,0.3,0.3
			c0.1,0.2,1.3,3.2,1.3,3.3c0.1,0.1,0.1,0.5-0.2,0.7c-1,0.1-2,0.1-3-0.3c-1-0.3-1.9-0.9-2.6-1.6C156.4,122.4,156.7,122.1,156.8,122z
			 M155.2,120.8c-0.4-0.9-0.7-1.9-0.7-3c0-1.1,0.2-2.1,0.7-3c0.2-0.2,0.6-0.1,0.7,0c0.1,0.1,2.6,2.2,2.7,2.3
			c0.1,0.1,0.2,0.3,0.2,0.4c0,0.1,0,0.3,0,0.3s0,0.2,0,0.3c0,0.1-0.1,0.3-0.2,0.4c-0.1,0.1-2.6,2.2-2.7,2.3
			C155.8,120.8,155.4,121,155.2,120.8z"/>
		<path class="st9" d="M112.5,106.1c-6.4,0-11.7,5.2-11.7,11.7c0,6.4,5.2,11.7,11.7,11.7c6.4,0,11.7-5.2,11.7-11.7
			C124.1,111.3,118.9,106.1,112.5,106.1z M112.5,125.4c-4.2,0-7.6-3.4-7.6-7.6c0-4.2,3.4-7.6,7.6-7.6c4.2,0,7.6,3.4,7.6,7.6
			C120,122,116.6,125.4,112.5,125.4z"/>
		<path class="st10" d="M112.5,109.7c-4.4,0-8.1,3.6-8.1,8.1s3.6,8.1,8.1,8.1c4.4,0,8.1-3.6,8.1-8.1S116.9,109.7,112.5,109.7z
			 M111.5,111.1c1-0.1,2-0.1,3,0.3s1.9,0.9,2.6,1.6c0.1,0.3-0.1,0.6-0.3,0.7c-0.1,0.1-2.9,1.8-3,1.9c-0.2,0.1-0.3,0.1-0.4,0.1
			c-0.1,0-0.2-0.1-0.2-0.1s-0.1,0-0.2-0.1c-0.1,0-0.2-0.2-0.3-0.3c-0.1-0.2-1.3-3.2-1.3-3.3C111.3,111.6,111.3,111.3,111.5,111.1z
			 M110.7,119.9c0,0.2-0.8,3.3-0.9,3.5c0,0.1-0.2,0.4-0.5,0.4c-0.9-0.5-1.7-1.1-2.3-2c-0.6-0.9-1-1.8-1.2-2.8
			c0.1-0.3,0.5-0.4,0.6-0.4c0.1,0,3.4,0.2,3.6,0.2c0.2,0,0.3,0.1,0.4,0.2c0.1,0.1,0.1,0.2,0.1,0.2s0.1,0.1,0.1,0.2
			C110.7,119.5,110.7,119.7,110.7,119.9z M110.6,116.2c-0.1,0.1-0.1,0.2-0.1,0.2s-0.1,0.1-0.1,0.2s-0.2,0.2-0.4,0.2
			c-0.2,0-3.4,0.2-3.6,0.2c-0.1,0-0.5-0.1-0.6-0.4c0.2-1,0.6-1.9,1.2-2.8c0.6-0.9,1.4-1.5,2.3-2c0.3,0,0.5,0.3,0.5,0.4
			c0,0.1,0.8,3.3,0.9,3.5C110.7,115.9,110.7,116.1,110.6,116.2z M117.2,122.7c-0.7,0.7-1.6,1.2-2.6,1.6s-2.1,0.4-3,0.3
			c-0.2-0.2-0.2-0.6-0.2-0.7c0.1-0.1,1.3-3.2,1.3-3.3c0.1-0.2,0.2-0.3,0.3-0.3c0.1,0,0.2-0.1,0.2-0.1s0.1,0,0.2-0.1
			c0.1,0,0.3,0,0.4,0.1c0.2,0.1,2.9,1.8,3,1.9C117,122.1,117.3,122.4,117.2,122.7z M117.8,120.7c-0.1-0.1-2.6-2.2-2.7-2.3
			c-0.1-0.1-0.2-0.3-0.2-0.4c0-0.1,0-0.3,0-0.3s0-0.2,0-0.3c0-0.1,0.1-0.3,0.2-0.4c0.1-0.1,2.6-2.2,2.7-2.3c0.1-0.1,0.5-0.2,0.7,0
			c0.4,0.9,0.7,1.9,0.7,3c0,1.1-0.2,2.1-0.7,3C118.3,121,117.9,120.8,117.8,120.7z"/>
		<path class="st5" d="M110.6,117.9c-0.1-1.4,0.4-1.8,0.4-1.8l3.3-0.2c0,0,0.5,0.3,1.3,0.4c0.7,0.2,2.9,0.1,2.9,0.1l9.3-0.4
			c0.7-0.7,1.4-1.3,1.4-1.3s0.1-0.1,0.2-0.3l-1.5-3.6l2-0.8l1.1,2.6c0.1,0,0.1,0,0.3,0c0.2-0.1,0.4-0.2,0.4-0.2l17.8-18.1
			c0,0,0.1-0.2,0.2-0.3c0-0.1,0.1-0.1,0.1-0.2l-0.3-0.8l2.4-1l3,7.2l-2.4,1l-0.4-1l-0.2-0.1l-0.3,0.1l-0.3,0.2L133,117.7l0.7,1.6
			c0,0.1,0,0.2-0.1,0.2l-1.7,0.7c-0.1,0-0.2,0-0.2-0.1l-0.3-0.7l-1.7,1.7l-3.6,0.2c0,0-0.3,0-0.6-0.4c-0.3-0.4-0.3-0.6-0.3-1
			c0-0.4,0.1-1,0.4-1.7l-7.1,0.3l0,0c0,0-2.2,0.2-2.8,0.4c-0.7,0.2-1.2,0.5-1.2,0.5v0l-3.3,0.2C111.2,119.7,110.7,119.3,110.6,117.9
			z"/>
		<path class="st10" d="M158.7,115.1c-0.1-0.7-0.9-2.7-0.9-2.7l-5-11.7l-0.6,0.3l-0.2-0.4l0.4-0.2l-0.2-0.4l2.4-1l0.2,0.4l0.4-0.2
			l0.2,0.4l-0.6,0.3l5,11.8v0c0,0,1,1.9,1.3,2.5s0.9,1,0.9,1v0l1.3,3c0,0-0.2,0.6-1.5,1.2c-1.3,0.5-1.9,0.3-1.9,0.3l-1.3-3
			C158.7,116.5,158.8,115.9,158.7,115.1z"/>
		<path class="st11" d="M160.9,118.4c0.1,0.3,0.4,0.4,0.7,0.3c0.3-0.1,0.4-0.4,0.3-0.7c-0.1-0.3-0.4-0.4-0.7-0.3
			C161,117.9,160.8,118.2,160.9,118.4z"/>
		<circle class="st11" cx="111.9" cy="117.8" r="0.5"/>
		<polygon class="st10" points="147.6,91.7 149.1,91 147.4,87 149.1,86.3 150.8,90.3 151.1,90.2 151.5,91.2 151.5,91.3 151.7,91.8 
			149.3,92.8 149.1,92.3 148,92.7 		"/>
		<polygon class="st10" points="127.6,109.7 125.4,104.4 127,103.7 129.3,109 129.7,108.8 130.2,110.1 126.5,111.6 126,110.4 		"/>
		<path class="st9" d="M132.7,101.3c0,0-0.1,0.2-0.5,0.4c-0.4,0.2-5.6,2.5-6.4,2.9c-0.8,0.3-1.4,0.5-2.1,0.6c-0.6,0-2.5-0.2-3.2-0.4
			c-0.7-0.2-2.2-0.8-2.5-1.2c-0.3-0.3-0.4-0.4-0.4-0.6c-0.1-0.1-0.2-1.4-0.2-1.7c0-0.3,0.2-0.7,0.7-0.8c0.5-0.1,2.2,0.7,5.4,0.6
			c3.2-0.1,6.9-1.2,7.4-1.2s1,0.1,1.2,0.4C132.3,100.5,132.7,101.3,132.7,101.3z"/>
		<circle class="st9" cx="147.2" cy="86.1" r="2.1"/>
	</g>
</g>
<g id="レイヤー_2">
	<path class="st12" d="M109.3,51.5L36.6,86.4c-2.4,1.2-5.2-0.6-5.2-3.3V40.8c0-1.4,0.8-2.7,2.1-3.3l72.8-34.9
		c2.4-1.2,5.2,0.6,5.2,3.3v42.3C111.4,49.6,110.6,50.9,109.3,51.5z"/>
	<path class="st13" d="M129.8,61.1L57,96c-2.4,1.2-5.2-0.6-5.2-3.3V50.4c0-1.4,0.8-2.7,2.1-3.3l72.8-34.9c2.4-1.2,5.2,0.6,5.2,3.3
		v42.3C131.8,59.2,131,60.5,129.8,61.1z"/>
	<g>
		<path class="st4" d="M15.5,148.3c-1.2,0-3.3,0-3.9,0c-0.1,0-0.2,0.1-0.2,0.2c0,1.3,0,9.6,0,12.2c0,0.4-0.4,0.8-0.8,0.8
			c-0.4,0-0.8-0.4-0.8-0.8c0-2.6,0-10.9,0-12.2c0-0.1-0.1-0.2-0.2-0.2c-0.7,0-2.9,0-4.1,0c-0.4,0-0.8-0.4-0.8-0.8s0.4-0.8,0.8-0.8
			h9.9c0.4,0,0.8,0.4,0.8,0.8S15.9,148.3,15.5,148.3z"/>
		<path class="st4" d="M31.4,147.3l5.3,13.3c0.2,0.5,0,1-0.5,1.1c-0.6,0.1-1-0.1-1.2-0.6c-0.4-0.9-1.1-2.9-1.3-3.4
			c0-0.1-0.1-0.1-0.2-0.1c-0.6,0-2.7,0-3.8,0c-0.4,0-0.8-0.4-0.8-0.8s0.4-0.8,0.8-0.8c1,0,2.6,0,3.2,0c0.1,0,0.1-0.1,0.1-0.1
			c-0.4-1-2.1-5.3-2.6-6.6c0-0.1-0.1-0.1-0.1,0c-0.6,1.4-3.4,9.2-4.4,11.6c-0.2,0.5-0.6,0.8-1.2,0.7c-0.4-0.1-0.7-0.6-0.6-1
			l5.3-13.2c0.2-0.4,0.6-0.7,1-0.7S31.2,146.9,31.4,147.3z"/>
		<path class="st4" d="M46.5,160.7c0,0.4-0.4,0.8-0.8,0.8c-0.4,0-0.8-0.4-0.8-0.8v-13.2c0-0.4,0.4-0.8,0.8-0.8
			c0.5,0,0.8,0.4,0.8,0.8V160.7z M55,161.4c-0.6,0.2-0.9,0-1.3-0.5l-5.9-6.7c-0.4-0.4-0.4-1.1,0-1.5l5.3-5.4
			c0.3-0.3,0.7-0.4,1.2-0.2c0.4,0.3,0.5,0.8,0.2,1.1c-1.5,1.6-4.5,4.5-5.2,5.2c-0.1,0.1-0.1,0.2,0,0.2c0.8,0.8,4.4,4.8,6,6.6
			C55.7,160.6,55.3,161.3,55,161.4z"/>
		<path class="st4" d="M70.4,147.3l5.3,13.3c0.2,0.5,0,1-0.5,1.1c-0.6,0.1-1-0.1-1.2-0.6c-0.4-0.9-1.1-2.9-1.3-3.4
			c0-0.1-0.1-0.1-0.2-0.1c-0.6,0-2.7,0-3.8,0c-0.4,0-0.8-0.4-0.8-0.8s0.4-0.8,0.8-0.8c1,0,2.6,0,3.2,0c0.1,0,0.1-0.1,0.1-0.1
			c-0.4-1-2.1-5.3-2.6-6.6c0-0.1-0.1-0.1-0.1,0c-0.6,1.4-3.4,9.2-4.4,11.6c-0.2,0.5-0.6,0.8-1.2,0.7c-0.4-0.1-0.7-0.6-0.6-1
			l5.3-13.2c0.2-0.4,0.6-0.7,1-0.7S70.3,146.9,70.4,147.3z"/>
		<path class="st4" d="M94.2,157.2c0,1.8-1.3,4.4-5.5,4.3c-3.1,0-4.6-1.4-5.1-3.3c-0.1-0.4,0.4-0.9,0.8-0.9c0.5,0,0.7,0.4,0.9,0.8
			c0.5,1.2,1.5,1.9,3.4,2c3,0.1,3.9-1.7,3.9-3c0-0.9-0.3-2.3-3-2.6c-3.8-0.5-5.9-1.4-6-4.2c0-2.3,1.8-3.7,5.1-3.8
			c1.7,0,3.4,0.5,4.7,1.3c0.4,0.2,0.6,0.7,0.5,1.2c-0.1,0.4-0.6,0.7-1,0.5c-1.3-0.8-2.4-1.3-4-1.3c-2.1-0.1-3.6,0.6-3.6,2
			c0,1.5,1.1,2.3,4.5,2.8C92.6,153.4,94.2,155,94.2,157.2z"/>
		<path class="st4" d="M103.6,160.6c0,0.4-0.4,0.8-0.8,0.8c-0.4,0-0.8-0.4-0.8-0.8v-13.2c0-0.4,0.4-0.8,0.8-0.8
			c0.4,0,0.8,0.4,0.8,0.8V160.6z M112.5,147.5v13.2c0,0.4-0.3,0.8-0.8,0.8c-0.4,0-0.8-0.4-0.8-0.8c0-1.6,0-5.2,0-6.1
			c0-0.1-0.1-0.1-0.2-0.1c-0.8,0-3.9,0-5.4,0c-0.4,0-0.8-0.4-0.8-0.8c0-0.4,0.4-0.8,0.8-0.8c1.5,0,4.6,0,5.4,0
			c0.1,0,0.2-0.1,0.2-0.1c0-0.8,0-3.9,0-5.3c0-0.4,0.4-0.8,0.8-0.8C112.2,146.7,112.5,147.1,112.5,147.5z"/>
		<path class="st4" d="M123.1,160.7c0,0.4-0.4,0.8-0.8,0.8s-0.8-0.4-0.8-0.8v-13.2c0-0.4,0.4-0.8,0.8-0.8s0.8,0.4,0.8,0.8V160.7z"/>
		<path class="st4" d="M132.3,147.3c0-0.4,0.4-0.8,0.8-0.8c0.4,0,0.8,0.4,0.8,0.8v13.3c0,0.5-0.4,0.8-0.8,0.8
			c-0.4,0-0.8-0.4-0.8-0.8V147.3z M145.3,146.8c0.6,0,0.9,0.5,0.9,1v12.9c0,0.4-0.4,0.8-0.8,0.8c-0.4,0-0.8-0.4-0.8-0.8
			c0-2.4,0-10,0-11.8c0-0.1-0.1-0.1-0.1,0c-0.8,1.3-3.3,5.2-4.2,6.8c-0.2,0.4-0.6,0.6-1.1,0.6c-0.4,0-0.8-0.3-1-0.7l-3.8-7.9
			c-0.2-0.4,0.1-0.8,0.5-0.8c0.5,0,0.8,0.1,1,0.5c0.8,1.7,2.9,5.9,3.3,6.9c0,0.1,0.1,0.1,0.2,0c0.6-0.9,3.2-5.1,4.3-6.9
			c0.2-0.3,0.4-0.5,0.9-0.5H145.3z"/>
		<path class="st4" d="M161.4,147.3l5.3,13.3c0.2,0.5,0,1-0.5,1.1c-0.6,0.1-1-0.1-1.2-0.6c-0.4-0.9-1.1-2.9-1.3-3.4
			c0-0.1-0.1-0.1-0.2-0.1c-0.6,0-2.7,0-3.8,0c-0.4,0-0.8-0.4-0.8-0.8s0.4-0.8,0.8-0.8c1,0,2.6,0,3.2,0c0.1,0,0.1-0.1,0.1-0.1
			c-0.4-1-2.1-5.3-2.6-6.6c0-0.1-0.1-0.1-0.1,0c-0.6,1.4-3.4,9.2-4.4,11.6c-0.2,0.5-0.6,0.8-1.2,0.7c-0.4-0.1-0.7-0.6-0.6-1
			l5.3-13.2c0.2-0.4,0.6-0.7,1-0.7C160.9,146.7,161.3,146.9,161.4,147.3z"/>
		<path class="st4" d="M14.8,187.8c-0.6,0-1-0.5-1-1v-12.9c0-0.4,0.3-0.8,0.8-0.8c0.4,0,0.8,0.4,0.8,0.8c0,2.6,0,10.9,0,12.2
			c0,0.1,0.1,0.2,0.2,0.2c1.1,0,2.1,0,2.8,0c3.5-0.2,4.7-2,4.8-5.8c0.1-2.8-0.8-5.7-4.6-5.8h-1.6c-0.4,0-0.8-0.4-0.8-0.8
			c0-0.4,0.3-0.8,0.8-0.8h1.6c4.4,0,6.3,3.2,6.2,7.3c0,3.9-1.6,7.3-6.3,7.3C17.8,187.9,16,187.8,14.8,187.8z"/>
		<path class="st4" d="M39.6,173.8L45,187c0.2,0.5,0,1-0.5,1.1c-0.6,0.1-1-0.1-1.2-0.6c-0.4-0.9-1.1-2.9-1.3-3.4
			c0-0.1-0.1-0.1-0.2-0.1c-0.6,0-2.7,0-3.8,0c-0.4,0-0.8-0.4-0.8-0.8s0.4-0.8,0.8-0.8c1,0,2.6,0,3.2,0c0.1,0,0.1-0.1,0.1-0.1
			c-0.4-1-2.1-5.3-2.6-6.6c0-0.1-0.1-0.1-0.1,0c-0.6,1.4-3.4,9.2-4.4,11.6c-0.2,0.5-0.6,0.8-1.2,0.7c-0.4-0.1-0.7-0.6-0.6-1
			l5.3-13.2c0.2-0.4,0.6-0.7,1-0.7S39.5,173.4,39.6,173.8z"/>
		<path class="st4" d="M55.4,187.1c0,0.4-0.4,0.8-0.8,0.8c-0.4,0-0.8-0.4-0.8-0.8V174c0-0.4,0.4-0.8,0.8-0.8c0.4,0,0.8,0.4,0.8,0.8
			V187.1z"/>
		<path class="st4" d="M73.5,187.2c-0.8-1.4-2.4-4.2-2.7-4.9c0-0.1-0.1-0.1-0.2-0.1c-0.5,0-1.9,0-2.9,0c-0.4,0-0.8-0.3-0.8-0.8
			s0.3-0.8,0.8-0.8h2.2c3,0.1,3.4-2.5,3.4-3c0-1.4-0.5-3-2.8-3c0,0-3.1,0-4,0c-0.1,0-0.2,0.1-0.2,0.2c0,1.3,0,9.7,0,12.3
			c0,0.4-0.4,0.8-0.8,0.8c-0.4,0-0.8-0.4-0.8-0.8v-13c0-0.6,0.5-1,1-1h4.7c2.8,0.1,4.4,1.6,4.4,4.4c0,2.1-1.3,3.8-2.5,4.2
			c-0.1,0-0.1,0.1-0.1,0.2c0.4,0.7,2.1,3.6,3,5c0.2,0.4,0.1,0.9-0.6,0.9C74.2,187.9,73.8,187.8,73.5,187.2z"/>
		<path class="st4" d="M90.4,173.8l5.3,13.3c0.2,0.5,0,1-0.5,1.1c-0.6,0.1-1-0.1-1.2-0.6c-0.4-0.9-1.1-2.9-1.3-3.4
			c0-0.1-0.1-0.1-0.2-0.1c-0.6,0-2.7,0-3.8,0c-0.4,0-0.8-0.4-0.8-0.8s0.4-0.8,0.8-0.8c1,0,2.6,0,3.2,0c0.1,0,0.1-0.1,0.1-0.1
			c-0.4-1-2.1-5.3-2.6-6.6c0-0.1-0.1-0.1-0.1,0c-0.6,1.4-3.4,9.2-4.4,11.6c-0.2,0.5-0.6,0.8-1.2,0.7c-0.4-0.1-0.7-0.6-0.6-1
			l5.3-13.2c0.2-0.4,0.6-0.7,1-0.7S90.3,173.4,90.4,173.8z"/>
		<path class="st4" d="M109.8,180.4c0-4.3,2.4-7.2,6.1-7.3c3.1-0.1,4.8,1.8,5.1,2.9c0.1,0.4-0.3,0.9-0.7,1c-0.5,0-0.8-0.3-1.1-0.7
			c-0.8-1.1-1.9-1.5-3.2-1.5c-2.8,0-4.6,2.3-4.6,5.8c0,3.1,1.4,6.2,4.9,6.1c1.6-0.1,3.2-1.1,3.5-2.7c0.1-0.5,0.3-0.9,0.8-0.8
			c0.5,0,1,0.5,0.9,1.1c-0.4,1.8-1.4,3.9-5.1,4C111.9,188.2,109.8,184.9,109.8,180.4z"/>
		<path class="st4" d="M134.6,188c-3.3-0.1-5.3-2.3-5.2-6.1V174c0-0.4,0.4-0.8,0.8-0.8c0.4,0,0.8,0.3,0.8,0.8v7.9
			c0,2.2,1,4.5,3.7,4.5c2.3,0.1,3.6-1.5,3.8-4.3V174c0-0.4,0.4-0.8,0.8-0.8c0.4,0,0.8,0.3,0.8,0.8v8.3
			C140,186.4,137.1,188,134.6,188z"/>
		<path class="st4" d="M153.6,182.3h-2.3c-0.5,0-0.8-0.4-0.8-0.8c0-0.4,0.4-0.8,0.8-0.8h2.3c2.1,0,3.3-1.2,3.4-2.9
			c0-1.4-0.8-3-2.9-3c0,0-3.1,0-4,0c-0.1,0-0.1,0.1-0.1,0.2c0,1.3,0,9.9,0,12.5c0,0.4-0.4,0.8-0.8,0.8c-0.4,0-0.8-0.3-0.8-0.8v-13.1
			c0-0.6,0.5-1,1-1h4.4c3.5,0,4.8,2.4,4.8,4.3C158.6,180.8,156.2,182.3,153.6,182.3z"/>
	</g>
	<g>
		<polygon class="st5" points="82.3,65.8 72.3,70.6 72.3,57.9 82.3,53.1 		"/>
		<polygon class="st6" points="92.3,61 82.3,65.8 82.3,53.1 92.3,48.3 		"/>
		<polygon class="st5" points="102.3,56.2 92.3,61 92.3,48.3 102.3,43.5 		"/>
		<polygon class="st6" points="112.3,51.4 102.3,56.2 102.3,43.5 112.3,38.7 		"/>
		<polygon class="st5" points="122.3,46.6 112.3,51.4 112.3,38.7 122.3,33.9 		"/>
		<polygon class="st6" points="132.3,41.8 122.3,46.6 122.3,33.9 132.3,29.1 		"/>
		<polygon class="st5" points="142.3,37 132.3,41.8 132.3,29.1 142.3,24.3 		"/>
		<polygon class="st6" points="152.3,32.2 142.3,37 142.3,24.3 152.3,19.5 		"/>
		<polygon class="st6" points="82.3,78.5 72.3,83.3 72.3,70.6 82.3,65.8 		"/>
		<polygon class="st5" points="92.3,73.7 82.3,78.5 82.3,65.8 92.3,61 		"/>
		<polygon class="st6" points="102.3,68.9 92.3,73.7 92.3,61 102.3,56.2 		"/>
		<polygon class="st5" points="112.3,64.1 102.3,68.9 102.3,56.2 112.3,51.4 		"/>
		<polygon class="st6" points="122.3,59.3 112.3,64.1 112.3,51.4 122.3,46.6 		"/>
		<polygon class="st5" points="132.3,54.5 122.3,59.3 122.3,46.6 132.3,41.8 		"/>
		<polygon class="st6" points="142.3,49.7 132.3,54.5 132.3,41.8 142.3,37 		"/>
		<polygon class="st5" points="152.3,44.9 142.3,49.7 142.3,37 152.3,32.2 		"/>
	</g>
	<g>
		<polygon class="st5" points="82.3,91.2 72.3,96 72.3,83.3 82.3,78.5 		"/>
		<polygon class="st6" points="92.3,86.4 82.3,91.2 82.3,78.5 92.3,73.7 		"/>
		<polygon class="st5" points="102.3,81.6 92.3,86.4 92.3,73.7 102.3,68.9 		"/>
		<polygon class="st6" points="112.3,76.8 102.3,81.6 102.3,68.9 112.3,64.1 		"/>
		<polygon class="st5" points="122.3,72 112.3,76.8 112.3,64.1 122.3,59.3 		"/>
		<polygon class="st6" points="132.3,67.2 122.3,72 122.3,59.3 132.3,54.5 		"/>
		<polygon class="st5" points="142.3,62.4 132.3,67.2 132.3,54.5 142.3,49.7 		"/>
		<polygon class="st6" points="152.3,57.6 142.3,62.4 142.3,49.7 152.3,44.9 		"/>
		<polygon class="st6" points="82.3,103.9 72.3,108.7 72.3,96 82.3,91.2 		"/>
		<polygon class="st5" points="92.3,99.1 82.3,103.9 82.3,91.2 92.3,86.4 		"/>
		<polygon class="st6" points="102.3,94.3 92.3,99.1 92.3,86.4 102.3,81.6 		"/>
		<polygon class="st5" points="112.3,89.5 102.3,94.3 102.3,81.6 112.3,76.8 		"/>
		<polygon class="st6" points="122.3,84.7 112.3,89.5 112.3,76.8 122.3,72 		"/>
		<polygon class="st5" points="132.3,79.9 122.3,84.7 122.3,72 132.3,67.2 		"/>
		<polygon class="st6" points="142.3,75.1 132.3,79.9 132.3,67.2 142.3,62.4 		"/>
		<polygon class="st5" points="152.3,70.3 142.3,75.1 142.3,62.4 152.3,57.6 		"/>
	</g>
	<path class="st14" d="M150.3,71.3l-72.8,34.9c-2.4,1.2-5.2-0.6-5.2-3.3V60c0-1.4,0.8-2.7,2.1-3.3l72.8-34.9
		c2.4-1.2,5.2,0.6,5.2,3.3V68C152.3,69.4,151.5,70.7,150.3,71.3z"/>
	<path class="st15" d="M5.4,97.9l77,36.9c2.4,1.2,5.2-0.6,5.2-3.3V81.5c0-1.4-0.8-2.7-2.1-3.3l-77-36.9c-2.4-1.2-5.2,0.6-5.2,3.3
		v50.1C3.4,96.1,4.2,97.3,5.4,97.9z"/>
	<g>
		<path class="st9" d="M146.3,119.5c0,6.4,5.2,11.7,11.7,11.7s11.7-5.2,11.7-11.7c0-6.4-5.2-11.7-11.7-11.7S146.3,113.1,146.3,119.5
			z M150.4,119.5c0-4.2,3.4-7.6,7.6-7.6s7.6,3.4,7.6,7.6c0,4.2-3.4,7.6-7.6,7.6S150.4,123.7,150.4,119.5z"/>
		<path class="st10" d="M149.9,119.5c0,4.4,3.6,8.1,8.1,8.1s8.1-3.6,8.1-8.1c0-4.4-3.6-8.1-8.1-8.1S149.9,115.1,149.9,119.5z
			 M159.1,113.5c-0.1,0.1-1.3,3.2-1.3,3.3c-0.1,0.2-0.2,0.3-0.3,0.3c-0.1,0-0.2,0.1-0.2,0.1s-0.1,0-0.2,0.1c-0.1,0-0.3,0-0.4-0.1
			c-0.2-0.1-2.9-1.8-3-1.9c-0.1-0.1-0.4-0.4-0.3-0.7c0.7-0.7,1.6-1.2,2.6-1.6c1-0.3,2.1-0.4,3-0.3
			C159.1,113,159.1,113.4,159.1,113.5z M159.8,121.2c0.1-0.1,0.1-0.2,0.1-0.2s0.1-0.1,0.1-0.2c0.1-0.1,0.2-0.2,0.4-0.2
			c0.2,0,3.4-0.2,3.6-0.2c0.1,0,0.5,0.1,0.6,0.4c-0.2,1-0.6,1.9-1.2,2.8c-0.6,0.9-1.4,1.5-2.3,2c-0.3,0-0.5-0.3-0.5-0.4
			c0-0.1-0.8-3.3-0.9-3.5C159.7,121.4,159.7,121.3,159.8,121.2z M159.7,117.5c0-0.2,0.8-3.3,0.9-3.5c0-0.1,0.2-0.4,0.5-0.4
			c0.9,0.5,1.7,1.1,2.3,2c0.6,0.9,1,1.8,1.2,2.8c-0.1,0.3-0.5,0.4-0.6,0.4c-0.1,0-3.4-0.2-3.6-0.2c-0.2,0-0.3-0.1-0.4-0.2
			c-0.1-0.1-0.1-0.2-0.1-0.2s-0.1-0.1-0.1-0.2C159.7,117.8,159.7,117.6,159.7,117.5z M153.5,123.7c0.1-0.1,2.9-1.8,3-1.9
			c0.2-0.1,0.3-0.1,0.4-0.1c0.1,0,0.2,0.1,0.2,0.1s0.1,0,0.2,0.1c0.1,0,0.2,0.2,0.3,0.3c0.1,0.2,1.3,3.2,1.3,3.3
			c0.1,0.1,0.1,0.5-0.2,0.7c-1,0.1-2,0.1-3-0.3c-1-0.3-1.9-0.9-2.6-1.6C153.1,124.1,153.4,123.8,153.5,123.7z M151.9,122.5
			c-0.4-0.9-0.7-1.9-0.7-3c0-1.1,0.2-2.1,0.7-3c0.2-0.2,0.6-0.1,0.7,0c0.1,0.1,2.6,2.2,2.7,2.3c0.1,0.1,0.2,0.3,0.2,0.4
			c0,0.1,0,0.3,0,0.3s0,0.2,0,0.3c0,0.1-0.1,0.3-0.2,0.4c-0.1,0.1-2.6,2.2-2.7,2.3C152.5,122.6,152.1,122.7,151.9,122.5z"/>
		<path class="st9" d="M109.2,107.9c-6.4,0-11.7,5.2-11.7,11.7c0,6.4,5.2,11.7,11.7,11.7c6.4,0,11.7-5.2,11.7-11.7
			C120.8,113.1,115.6,107.9,109.2,107.9z M109.2,127.1c-4.2,0-7.6-3.4-7.6-7.6c0-4.2,3.4-7.6,7.6-7.6c4.2,0,7.6,3.4,7.6,7.6
			C116.7,123.7,113.3,127.1,109.2,127.1z"/>
		<path class="st10" d="M109.2,111.5c-4.4,0-8.1,3.6-8.1,8.1c0,4.4,3.6,8.1,8.1,8.1c4.4,0,8.1-3.6,8.1-8.1
			C117.2,115.1,113.6,111.5,109.2,111.5z M108.2,112.8c1-0.1,2-0.1,3,0.3c1,0.3,1.9,0.9,2.6,1.6c0.1,0.3-0.1,0.6-0.3,0.7
			c-0.1,0.1-2.9,1.8-3,1.9c-0.2,0.1-0.3,0.1-0.4,0.1c-0.1,0-0.2-0.1-0.2-0.1s-0.1,0-0.2-0.1s-0.2-0.2-0.3-0.3
			c-0.1-0.2-1.3-3.2-1.3-3.3C108,113.4,108,113,108.2,112.8z M107.4,121.6c0,0.2-0.8,3.3-0.9,3.5c0,0.1-0.2,0.4-0.5,0.4
			c-0.9-0.5-1.7-1.1-2.3-2c-0.6-0.9-1-1.8-1.2-2.8c0.1-0.3,0.5-0.4,0.6-0.4c0.1,0,3.4,0.2,3.6,0.2c0.2,0,0.3,0.1,0.4,0.2
			c0.1,0.1,0.1,0.2,0.1,0.2s0.1,0.1,0.1,0.2C107.4,121.3,107.4,121.4,107.4,121.6z M107.3,117.9c-0.1,0.1-0.1,0.2-0.1,0.2
			s-0.1,0.1-0.1,0.2s-0.2,0.2-0.4,0.2c-0.2,0-3.4,0.2-3.6,0.2c-0.1,0-0.5-0.1-0.6-0.4c0.2-1,0.6-1.9,1.2-2.8c0.6-0.9,1.4-1.5,2.3-2
			c0.3,0,0.5,0.3,0.5,0.4c0,0.1,0.8,3.3,0.9,3.5C107.4,117.6,107.4,117.8,107.3,117.9z M113.9,124.4c-0.7,0.7-1.6,1.2-2.6,1.6
			c-1,0.3-2.1,0.4-3,0.3c-0.2-0.2-0.2-0.6-0.2-0.7c0.1-0.1,1.3-3.2,1.3-3.3c0.1-0.2,0.2-0.3,0.3-0.3c0.1,0,0.2-0.1,0.2-0.1
			s0.1,0,0.2-0.1c0.1,0,0.3,0,0.4,0.1c0.2,0.1,2.9,1.8,3,1.9C113.7,123.8,114,124.1,113.9,124.4z M114.5,122.5
			c-0.1-0.1-2.6-2.2-2.7-2.3s-0.2-0.3-0.2-0.4c0-0.1,0-0.3,0-0.3s0-0.2,0-0.3c0-0.1,0.1-0.3,0.2-0.4c0.1-0.1,2.6-2.2,2.7-2.3
			c0.1-0.1,0.5-0.2,0.7,0c0.4,0.9,0.7,1.9,0.7,3c0,1.1-0.2,2.1-0.7,3C115,122.7,114.6,122.6,114.5,122.5z"/>
		<path class="st5" d="M107.3,119.6c-0.1-1.4,0.4-1.8,0.4-1.8l3.3-0.2c0,0,0.5,0.3,1.3,0.4c0.7,0.2,2.9,0.1,2.9,0.1l9.3-0.4
			c0.7-0.7,1.4-1.3,1.4-1.3s0.1-0.1,0.2-0.3l-1.5-3.6l2-0.8l1.1,2.6c0.1,0,0.1,0,0.3,0c0.2-0.1,0.4-0.2,0.4-0.2L146,95.9
			c0,0,0.1-0.2,0.2-0.3c0-0.1,0.1-0.1,0.1-0.2l-0.3-0.8l2.4-1l3,7.2l-2.4,1l-0.4-1l-0.2-0.1l-0.3,0.1l-0.3,0.2l-18.1,18.5l0.7,1.6
			c0,0.1,0,0.2-0.1,0.2l-1.7,0.7c-0.1,0-0.2,0-0.2-0.1l-0.3-0.7l-1.7,1.7l-3.6,0.2c0,0-0.3,0-0.6-0.4c-0.3-0.4-0.3-0.6-0.3-1
			c0-0.4,0.1-1,0.4-1.7l-7.1,0.3l0,0c0,0-2.2,0.2-2.8,0.4c-0.7,0.2-1.2,0.5-1.2,0.5v0l-3.3,0.2C107.9,121.4,107.4,121,107.3,119.6z"
			/>
		<path class="st10" d="M155.4,116.9c-0.1-0.7-0.9-2.7-0.9-2.7l-5-11.7l-0.6,0.3l-0.2-0.4l0.4-0.2l-0.2-0.4l2.4-1l0.2,0.4l0.4-0.2
			l0.2,0.4l-0.6,0.3l5,11.8v0c0,0,1,1.9,1.3,2.5c0.4,0.6,0.9,1,0.9,1v0l1.3,3c0,0-0.2,0.6-1.5,1.2s-1.9,0.3-1.9,0.3l-1.3-3
			C155.4,118.2,155.5,117.6,155.4,116.9z"/>
		<path class="st11" d="M157.6,120.2c0.1,0.3,0.4,0.4,0.7,0.3c0.3-0.1,0.4-0.4,0.3-0.7s-0.4-0.4-0.7-0.3
			C157.7,119.6,157.5,119.9,157.6,120.2z"/>
		<circle class="st11" cx="108.6" cy="119.5" r="0.5"/>
		<polygon class="st10" points="144.3,93.4 145.8,92.8 144.1,88.7 145.8,88 147.5,92.1 147.8,91.9 148.2,93 148.2,93 148.4,93.5 
			146,94.5 145.8,94 144.7,94.5 		"/>
		<polygon class="st10" points="124.3,111.4 122.1,106.1 123.7,105.4 126,110.7 126.4,110.6 126.9,111.8 123.2,113.4 122.7,112.1 		
			"/>
		<path class="st9" d="M129.4,103c0,0-0.1,0.2-0.5,0.4c-0.4,0.2-5.6,2.5-6.4,2.9c-0.8,0.3-1.4,0.5-2.1,0.6c-0.6,0-2.5-0.2-3.2-0.4
			c-0.7-0.2-2.2-0.8-2.5-1.2c-0.3-0.3-0.4-0.4-0.4-0.6c-0.1-0.1-0.2-1.4-0.2-1.7s0.2-0.7,0.7-0.8c0.5-0.1,2.2,0.7,5.4,0.6
			c3.2-0.1,6.9-1.2,7.4-1.2c0.5-0.1,1,0.1,1.2,0.4S129.4,103,129.4,103z"/>
		<circle class="st9" cx="143.9" cy="87.8" r="2.1"/>
	</g>
</g>
</svg>
